<?xml version="1.0" encoding="utf-8"?>
<!-- Generator: Adobe Illustrator 19.2.1, SVG Export Plug-In . SVG Version: 6.00 Build 0)  -->
<svg version="1.1" id="Inhalt" xmlns="http://www.w3.org/2000/svg" xmlns:xlink="http://www.w3.org/1999/xlink" x="0px" y="0px"
	 viewBox="0 0 80 80" style="enable-background:new 0 0 80 80;" xml:space="preserve">
<style type="text/css">
	.st0{fill:none;stroke:#000000;stroke-width:3.2;stroke-linecap:round;stroke-linejoin:round;stroke-miterlimit:10;}
	.st1{fill:none;stroke:#000000;stroke-width:1.6;stroke-linecap:round;stroke-linejoin:round;stroke-miterlimit:10;}
	.st2{fill:none;stroke:#000000;stroke-width:3.2;stroke-miterlimit:10;}
	.st3{fill:#FFFFFF;stroke:#000000;stroke-width:3.2;stroke-miterlimit:10;}
	.st4{fill:#4794DA;}
	.st5{fill:#FFFFFF;}
	.st6{fill:none;stroke:#000000;stroke-width:3.2;stroke-linecap:round;stroke-linejoin:round;}
	.st7{fill:none;stroke:#000000;stroke-width:3.2;stroke-linecap:round;stroke-linejoin:round;stroke-dasharray:7.5299,7.5299;}
</style>
<g>
	<path class="st4" d="M15.3,32.1h4c1.7,0,2.6,0.4,3.3,1.1c0.8,0.8,1.2,1.8,1.2,3c0,1.7-0.8,3.3-3.1,3.8v0c0.9,0.2,1.4,0.6,1.7,1.5
		l2.2,6.3h-2.1l-1.8-5.3c-0.4-1.3-1-1.8-2.5-1.8h-0.9v7.1h-2V32.1z M17.3,39.1h1.5c2.1,0,2.9-1.4,2.9-2.8c0-1.8-1.1-2.6-2.9-2.6
		h-1.6V39.1z"/>
	<path class="st4" d="M26.7,32.1H34v1.7h-5.3v5h5.1v1.7h-5.1v5.6h5.6v1.7h-7.6V32.1z"/>
	<path class="st4" d="M43.4,34.4c-0.7-0.4-1.7-0.7-2.7-0.7c-1.5,0-2.5,1-2.5,2.3c0,1,0.4,1.6,2.7,2.9c2.4,1.4,3.2,2.8,3.2,4.6
		c0,2.5-1.6,4.5-4.6,4.5c-1.3,0-2.5-0.3-3.3-0.7v-2c0.9,0.5,2.1,1,3,1c1.8,0,2.8-1.2,2.8-2.5c0-1.2-0.3-1.9-2.4-3.2
		c-2.8-1.7-3.5-2.7-3.5-4.7c0-2.6,2-3.9,4.4-3.9c1,0,2.1,0.2,2.8,0.5V34.4z"/>
	<path class="st4" d="M46.4,32.1h7.3v1.7h-5.3v5h5.1v1.7h-5.1v5.6H54v1.7h-7.6V32.1z"/>
	<path class="st4" d="M59.1,33.9h-3.6v-1.7h9.2v1.7h-3.6v14h-2V33.9z"/>
</g>
</svg>
